<svg width="131" height="135" viewBox="0 0 131 135" fill="none" xmlns="http://www.w3.org/2000/svg">
<path d="M52.3318 87.3971C68.2466 98.7822 87.8064 105.227 94.4038 95.5248L103.337 82.3871C109.935 72.685 97.2808 56.0847 81.366 44.6996C65.4512 33.3145 45.8914 26.8697 39.294 36.5719L30.3604 49.7096C23.7629 59.4117 36.417 76.012 52.3318 87.3971ZM96.9331 77.8056L94.2597 81.7371C93.0327 79.1082 91.5292 76.6247 89.7761 74.3309L93.9771 68.1529C97.0304 72.8466 97.8666 76.4327 96.9331 77.8056ZM58.8375 49.8304L63.2396 43.3568C66.4156 44.755 69.9104 46.6155 73.6456 49.0532L69.1788 55.6221C65.8666 53.4482 62.4112 51.513 58.8375 49.8304ZM80.0522 53.6315C83.1938 56.0673 86.1389 58.7587 88.8592 61.6796L84.4572 68.1532C81.7749 65.3848 78.7835 62.6932 75.5877 60.197L80.0522 53.6315ZM55.551 40.6638L51.35 46.8418C48.6461 45.945 45.8543 45.3558 43.0249 45.0849L45.6983 41.1534C46.6319 39.7805 50.1986 39.3442 55.551 40.6638ZM67.9656 64.4061C84.5432 76.2654 89.8956 88.1548 87.9995 90.9433C86.1033 93.7318 73.3762 92.6875 56.7986 80.8282C40.221 68.9689 34.8686 57.0796 36.7647 54.2911C38.6609 51.5026 51.3879 52.5469 67.9656 64.4061Z" fill="#FBD38D"/>
</svg>
